<svg width="14" height="14" viewBox="0 0 14 14" fill="none" xmlns="http://www.w3.org/2000/svg">
<path d="M9.91665 3.49998C9.91665 5.11081 8.61081 6.41665 6.99998 6.41665C5.38915 6.41665 4.08331 5.11081 4.08331 3.49998C4.08331 1.88915 5.38915 0.583313 6.99998 0.583313C8.61081 0.583313 9.91665 1.88915 9.91665 3.49998Z" fill="#5E6278"/>
<path opacity="0.25" fill-rule="evenodd" clip-rule="evenodd" d="M10.9772 8.23942C10.6176 7.82252 9.99998 7.844 9.51705 8.10833C8.76973 8.51738 7.91202 8.74994 7 8.74994C6.08798 8.74994 5.23027 8.51738 4.48295 8.10833C4.00001 7.844 3.38241 7.82252 3.02284 8.23942C2.22963 9.15909 1.75 10.3568 1.75 11.6666V12.2499C1.75 12.8943 2.27233 13.4166 2.91667 13.4166H11.0833C11.7277 13.4166 12.25 12.8943 12.25 12.2499V11.6666C12.25 10.3568 11.7704 9.15909 10.9772 8.23942Z" fill="#5E6278"/>
</svg>
