<svg width="11" height="11" viewBox="0 0 11 11" fill="none" xmlns="http://www.w3.org/2000/svg">
<path fill-rule="evenodd" clip-rule="evenodd" d="M8.28427 4.5491L8.70835 4.12502C9.21461 3.61876 9.21461 2.79794 8.70835 2.29168C8.20209 1.78542 7.38128 1.78542 6.87502 2.29168L6.43916 2.72754C6.85808 3.501 7.49941 4.13709 8.28427 4.5491ZM4.98347 4.18323L2.68973 6.47697C2.26467 6.90203 2.05214 7.11456 1.9124 7.37566C1.77267 7.63676 1.71372 7.93148 1.59583 8.52093L1.5221 8.88958C1.45558 9.22219 1.42232 9.3885 1.51693 9.48311C1.61154 9.57771 1.77784 9.54445 2.11045 9.47793L2.4791 9.4042C3.06855 9.28631 3.36328 9.22736 3.62438 9.08763C3.88547 8.9479 4.098 8.73537 4.52306 8.31031L4.52306 8.31031L4.52306 8.31031L6.8247 6.00867C6.09218 5.53 5.46615 4.90799 4.98347 4.18323Z" fill="#BDBDBD"/>
</svg>
