<svg width="20" height="20" viewBox="0 0 20 20" fill="none" xmlns="http://www.w3.org/2000/svg">
<g filter="url(#filter0_d_31_415)">
<circle cx="10" cy="10" r="8" fill="white"/>
</g>
<path fill-rule="evenodd" clip-rule="evenodd" d="M13.2843 8.5491L13.7084 8.12502C14.2146 7.61876 14.2146 6.79794 13.7084 6.29168C13.2021 5.78542 12.3813 5.78542 11.875 6.29168L11.4392 6.72754C11.8581 7.501 12.4994 8.13709 13.2843 8.5491ZM9.98347 8.18323L7.68973 10.477C7.26467 10.902 7.05214 11.1146 6.9124 11.3757C6.77267 11.6368 6.71372 11.9315 6.59583 12.5209L6.5221 12.8896C6.45558 13.2222 6.42232 13.3885 6.51693 13.4831C6.61154 13.5777 6.77784 13.5445 7.11045 13.4779L7.4791 13.4042C8.06855 13.2863 8.36328 13.2274 8.62438 13.0876C8.88547 12.9479 9.098 12.7354 9.52306 12.3103L9.52306 12.3103L9.52306 12.3103L11.8247 10.0087C11.0922 9.53 10.4661 8.90799 9.98347 8.18323Z" fill="#BDBDBD"/>
<defs>
<filter id="filter0_d_31_415" x="0" y="0" width="20" height="20" filterUnits="userSpaceOnUse" color-interpolation-filters="sRGB">
<feFlood flood-opacity="0" result="BackgroundImageFix"/>
<feColorMatrix in="SourceAlpha" type="matrix" values="0 0 0 0 0 0 0 0 0 0 0 0 0 0 0 0 0 0 127 0" result="hardAlpha"/>
<feOffset/>
<feGaussianBlur stdDeviation="1"/>
<feComposite in2="hardAlpha" operator="out"/>
<feColorMatrix type="matrix" values="0 0 0 0 0 0 0 0 0 0 0 0 0 0 0 0 0 0 0.25 0"/>
<feBlend mode="normal" in2="BackgroundImageFix" result="effect1_dropShadow_31_415"/>
<feBlend mode="normal" in="SourceGraphic" in2="effect1_dropShadow_31_415" result="shape"/>
</filter>
</defs>
</svg>
