<svg width="14" height="14" viewBox="0 0 14 14" fill="none" xmlns="http://www.w3.org/2000/svg">
<path opacity="0.25" fill-rule="evenodd" clip-rule="evenodd" d="M6.99996 2.33335C4.42263 2.33335 2.33329 4.42269 2.33329 7.00002C2.33329 9.57735 4.42263 11.6667 6.99996 11.6667C7.74604 11.6667 8.44966 11.492 9.07369 11.1819C9.36219 11.0385 9.7123 11.1562 9.85568 11.4447C9.99905 11.7332 9.8814 12.0833 9.59289 12.2267C8.81114 12.6152 7.93019 12.8334 6.99996 12.8334C3.7783 12.8334 1.16663 10.2217 1.16663 7.00002C1.16663 3.77836 3.7783 1.16669 6.99996 1.16669C10.2216 1.16669 12.8333 3.77836 12.8333 7.00002V7.00522C12.8333 7.16408 12.8334 7.82339 12.6211 8.46053C12.5127 8.78568 12.3358 9.14668 12.0377 9.43153C11.7257 9.72965 11.3086 9.91669 10.7916 9.91669C10.4695 9.91669 10.2083 9.65552 10.2083 9.33335C10.2083 9.01119 10.4695 8.75002 10.7916 8.75002C11.0038 8.75002 11.1336 8.68185 11.2317 8.58804C11.3438 8.48096 11.4404 8.31332 11.5143 8.0916C11.6641 7.64219 11.6666 7.14256 11.6666 7.00002C11.6666 4.42269 9.57729 2.33335 6.99996 2.33335Z" fill="#5E6278"/>
<path fill-rule="evenodd" clip-rule="evenodd" d="M8.75004 6.99998C8.75004 7.96648 7.96654 8.74998 7.00004 8.74998C6.03354 8.74998 5.25004 7.96648 5.25004 6.99998C5.25004 6.03348 6.03354 5.24998 7.00004 5.24998C7.96654 5.24998 8.75004 6.03348 8.75004 6.99998ZM9.18786 8.92887C8.65341 9.53459 7.87134 9.91665 7.00004 9.91665C5.38921 9.91665 4.08337 8.61081 4.08337 6.99998C4.08337 5.38915 5.38921 4.08331 7.00004 4.08331C7.65665 4.08331 8.26258 4.30028 8.75005 4.66644C8.75016 4.34437 9.01128 4.08331 9.33338 4.08331C9.65554 4.08331 9.91671 4.34448 9.91671 4.66665C9.91671 6.15595 9.92032 7.24209 10.0845 7.96445C10.1648 8.3178 10.2686 8.50718 10.3656 8.60638C10.4429 8.68536 10.5562 8.74998 10.7917 8.74998C11.1139 8.74998 11.375 9.01115 11.375 9.33331C11.375 9.65548 11.1139 9.91665 10.7917 9.91665C10.2981 9.91665 9.86452 9.76252 9.53163 9.42222C9.39004 9.2775 9.27779 9.11021 9.18786 8.92887Z" fill="#5E6278"/>
</svg>
